<?xml version="1.0" encoding="UTF-8" standalone="no"?>
<!DOCTYPE svg PUBLIC "-//W3C//DTD SVG 1.1//EN" "http://www.w3.org/Graphics/SVG/1.1/DTD/svg11.dtd">
<svg width="100%" height="100%" viewBox="0 0 540 540" version="1.1" xmlns="http://www.w3.org/2000/svg" xmlns:xlink="http://www.w3.org/1999/xlink" xml:space="preserve" xmlns:serif="http://www.serif.com/" style="fill-rule:evenodd;clip-rule:evenodd;stroke-linejoin:round;stroke-miterlimit:2;">
    <g transform="matrix(1,0,0,1,21.666667,0)">
        <g transform="matrix(-1.277778,-0,0,-1.277778,567.777778,167.777778)">
            <path d="M250,40L300,100L200,100L250,40Z"/>
        </g>
        <g transform="matrix(-1.277778,-0,0,-1.277778,503.888889,244.444444)">
            <path d="M250,40L300,100L200,100L250,40Z"/>
        </g>
        <g transform="matrix(-1.277778,-0,0,-1.277778,440,321.111111)">
            <path d="M250,40L300,100L200,100L250,40Z"/>
        </g>
        <g transform="matrix(-1.277778,-0,0,-1.277778,695.555556,321.111111)">
            <path d="M250,40L300,100L200,100L250,40Z"/>
        </g>
        <g transform="matrix(-1.277778,-0,0,-1.277778,631.666667,244.444444)">
            <path d="M250,40L300,100L200,100L250,40Z"/>
        </g>
        <g transform="matrix(1.277778,0,-0,1.277778,-71.111111,372.222222)">
            <path d="M250,40L300,100L200,100L250,40Z"/>
        </g>
        <g transform="matrix(1.277778,0,-0,1.277778,-7.222222,295.555556)">
            <path d="M250,40L300,100L200,100L250,40Z"/>
        </g>
        <g transform="matrix(1.277778,0,-0,1.277778,56.666667,218.888889)">
            <path d="M250,40L300,100L200,100L250,40Z"/>
        </g>
        <g transform="matrix(1.277778,0,-0,1.277778,-198.888889,218.888889)">
            <path d="M250,40L300,100L200,100L250,40Z"/>
        </g>
        <g transform="matrix(1.277778,0,-0,1.277778,-135,295.555556)">
            <path d="M250,40L300,100L200,100L250,40Z"/>
        </g>
    </g>
</svg>
